<?xml version="1.0" encoding="UTF-8"?>
<svg xmlns="http://www.w3.org/2000/svg" viewBox="0 0 20 20"><path d="M16.25 3.333h-3.333V2.5a.417.417 0 00-.417-.417h-.417a.417.417 0 00-.416.417v.833H8.333V2.5a.417.417 0 00-.416-.417H7.5a.417.417 0 00-.417.417v.833H3.75a.417.417 0 00-.417.417v12.5c0 .23.187.417.417.417h12.5c.23 0 .417-.187.417-.417V3.75a.417.417 0 00-.417-.417zm-.833 12.084H4.583V4.583h2.5v.834c0 .23.187.416.417.416h.417c.23 0 .416-.186.416-.416v-.834h3.334v.834c0 .23.186.416.416.416h.417c.23 0 .417-.186.417-.416v-.834h2.5v10.834z"></path></svg>