<?xml version="1.0" encoding="UTF-8"?>
<svg xmlns="http://www.w3.org/2000/svg" viewBox="0 0 24 24">
    <path d="M12.006 14.75a3.612 3.612 0 01-3.658-3.4l-.3-2.606a3.943 3.943 0 01.86-3.188 4 4 0 013.098-1.306A4 4 0 0115.1 5.56a3.95 3.95 0 01.858 3.206l-.292 2.588a3.614 3.614 0 01-3.66 3.396zm0-9a2.53 2.53 0 00-1.961.792 2.482 2.482 0 00-.505 2.015l.3 2.628a2.172 2.172 0 004.338 0l.295-2.609a2.507 2.507 0 00-.5-2.034 2.539 2.539 0 00-1.967-.792zM18.986 20.48a5.952 5.952 0 00-2.83-4.77.5.5 0 00-.7.1l-.31.34a.4.4 0 00.1.69A4.855 4.855 0 0117.3 19.5H6.706a4.913 4.913 0 012.05-2.66.4.4 0 00.11-.69l-.31-.34a.5.5 0 00-.7-.1 5.952 5.952 0 00-2.83 4.77.5.5 0 00.5.52h12.96a.5.5 0 00.5-.52z">
    </path>
</svg>