<svg version="1.0" xmlns="http://www.w3.org/2000/svg" viewBox="0 0 504 504"><g fill="#FFF"><path d="M155 .6C101 3.3 68.9 15 42 42 18.4 65.5 6.2 94.2 1.8 136c-1.9 17.9-1.9 214.1 0 232 4.4 41.8 16.6 70.5 40.2 94 23.5 23.6 52.2 35.8 94 40.2 17.9 1.9 214.1 1.9 232 0 41.8-4.4 70.5-16.6 94-40.2 23.6-23.5 35.8-52.2 40.2-94 1.9-17.9 1.9-214.1 0-232-4.4-41.8-16.6-70.5-40.2-94-23-23.1-51.3-35.4-92-40.1-7.4-.8-39.6-1.3-109.5-1.4C206.1.4 158.6.5 155 .6zm207 47.3c12.8 1.3 24.5 3.6 32.5 6.3 31.7 10.5 51.8 33.9 58.9 68.8 3.7 18.3 4.1 30.9 4.1 129s-.4 110.7-4.1 129c-8.1 39.6-32.8 64.3-72.4 72.4-18.3 3.7-30.9 4.1-129 4.1s-110.7-.4-129-4.1c-39.9-8.2-64.6-33-72.4-72.9-3.3-16.6-3.8-29.6-4.3-110-.5-79.6.3-120.3 2.7-138 6.8-49.1 34.6-76.8 84-83.5 4.7-.7 16.2-1.5 25.5-2 25-1.2 190.7-.4 203.5.9z"/><path d="M375 88.7c-6.3 2.3-15.1 11.3-17.3 17.7-.9 2.7-1.7 7.7-1.7 11.1 0 9.2 2.4 15.1 8.9 21.6 6.5 6.5 12.4 8.9 21.6 8.9 9.2 0 15.1-2.4 21.6-8.9 6.6-6.6 8.9-12.4 8.9-22 0-16.9-13.5-30.2-30.5-30-3.8 0-9 .8-11.5 1.6zM235.5 123.1c-30.5 4.1-56.2 17.3-77.5 39.5-23.9 24.9-35.4 54-35.4 89.4 0 35.8 11.6 64.8 36.2 90.2 25.5 26.4 56 39.2 93.2 39.2s67.7-12.8 93.2-39.2c24.6-25.4 36.2-54.4 36.2-90.2 0-35.8-11.6-64.8-36.2-90.2-19.1-19.8-41.9-32.2-68.5-37.3-10.1-2-31.7-2.7-41.2-1.4zm40 48.9c27.6 8.8 47.9 29.3 56.7 57 2 6.5 2.3 9.5 2.3 23s-.3 16.5-2.3 23c-8.8 27.9-29.3 48.4-57.2 57.2-6.5 2-9.5 2.3-23 2.3s-16.5-.3-23-2.3c-27.9-8.8-48.4-29.3-57.2-57.2-2-6.5-2.3-9.5-2.3-23s.3-16.5 2.3-23c9.6-30.3 33.8-52.6 64.3-59 2.4-.5 10.7-.8 18.4-.6 11.1.3 15.5.8 21 2.6z"/></g></svg>