<?xml version="1.0" encoding="UTF-8"?>
<svg viewBox="0 0 24 24" xmlns="http://www.w3.org/2000/svg">
    <g fill-rule="evenodd">
        <path fill="none" d="M0 0h24v24H0z"></path>
        <path d="M12 17.333A1.333 1.333 0 1112 20a1.333 1.333 0 010-2.667zm6.667 0a1.333 1.333 0 110 2.667 1.333 1.333 0 010-2.667zm-13.334 0a1.333 1.333 0 110 2.667 1.333 1.333 0 010-2.667zM12 10.667a1.333 1.333 0 110 2.666 1.333 1.333 0 010-2.666zm-6.667 0a1.333 1.333 0 110 2.666 1.333 1.333 0 010-2.666zm13.334 0a1.333 1.333 0 110 2.666 1.333 1.333 0 010-2.666zM12 4a1.333 1.333 0 110 2.667A1.333 1.333 0 0112 4zM5.333 4a1.333 1.333 0 110 2.667 1.333 1.333 0 010-2.667zm13.334 0a1.333 1.333 0 110 2.667 1.333 1.333 0 010-2.667z"></path>
    </g>
</svg>