<svg xmlns="http://www.w3.org/2000/svg" viewBox="0 0 19 15"><path fill="#FFF" fill-rule="evenodd" d="M16.634 3.736c.007.163.012.326.012.49C16.646 9.23 12.836 15 5.87 15a10.72 10.72 0 01-5.804-1.7c.296.034.597.052.903.052a7.595 7.595 0 004.703-1.621A3.79 3.79 0 012.135 9.1a3.82 3.82 0 001.71-.065A3.787 3.787 0 01.809 5.324v-.049a3.76 3.76 0 001.716.474A3.786 3.786 0 011.352.693 10.752 10.752 0 009.157 4.65a3.787 3.787 0 016.452-3.454 7.577 7.577 0 002.405-.918 3.805 3.805 0 01-1.665 2.095 7.599 7.599 0 002.175-.596 7.708 7.708 0 01-1.89 1.96"/></svg>